<svg width="557" height="151" viewBox="0 0 557 151" fill="none" xmlns="http://www.w3.org/2000/svg">
<path d="M45.4093 53.8481L98.5 23.1962L151.591 53.8481V115.152L98.5 145.804L45.4093 115.152V53.8481Z" fill="#E0CCC5" stroke="#041454" stroke-width="9"/>
<path d="M29.4093 44.8481L82.5 14.1962L135.591 44.8481V106.152L82.5 136.804L29.4093 106.152V44.8481Z" fill="#E0CCC5" stroke="#041454" stroke-width="9"/>
<path d="M14.4093 36.4254L66.5 6.35085L118.591 36.4254V96.5746L66.5 126.649L14.4093 96.5746V36.4254Z" fill="#E0CCC5" stroke="#041454" stroke-width="11"/>
<path d="M13.4093 35.8481L66.5 5.19615L119.591 35.8481V97.1519L66.5 127.804L13.4093 97.1519V35.8481Z" fill="#E0CCC5" stroke="#041454" stroke-width="9"/>
<path d="M234.441 28.0919V71H224.51V53.4077H205.018V71H195.088V28.0919H205.018V45.0099H224.51V28.0919H234.441ZM276.222 54.6336C276.222 54.7562 276.161 55.6144 276.038 57.2081H251.09C251.539 59.2514 252.602 60.8655 254.277 62.0506C255.953 63.2357 258.037 63.8282 260.53 63.8282C262.246 63.8282 263.758 63.583 265.066 63.0926C266.414 62.5614 267.661 61.7441 268.805 60.6408L273.893 66.1575C270.787 69.7128 266.251 71.4904 260.285 71.4904C256.566 71.4904 253.276 70.7752 250.416 69.345C247.555 67.8738 245.348 65.851 243.796 63.2765C242.243 60.7021 241.466 57.7802 241.466 54.511C241.466 51.2827 242.222 48.3813 243.734 45.8068C245.287 43.1915 247.392 41.1686 250.048 39.7384C252.745 38.2672 255.749 37.5317 259.059 37.5317C262.287 37.5317 265.209 38.2264 267.824 39.6158C270.439 41.0052 272.483 43.0076 273.954 45.6229C275.466 48.1974 276.222 51.201 276.222 54.6336ZM259.12 44.7648C256.954 44.7648 255.136 45.3777 253.664 46.6037C252.193 47.8296 251.294 49.5051 250.967 51.6301H267.211C266.884 49.5459 265.985 47.8909 264.514 46.665C263.043 45.3982 261.245 44.7648 259.12 44.7648ZM294.992 37.5317C300.1 37.5317 304.023 38.7576 306.761 41.2095C309.499 43.6205 310.868 47.2779 310.868 52.1817V71H301.918V66.8931C300.12 69.9579 296.769 71.4904 291.866 71.4904C289.332 71.4904 287.125 71.0613 285.245 70.2031C283.407 69.345 281.997 68.1599 281.016 66.6479C280.035 65.1359 279.545 63.4196 279.545 61.4989C279.545 58.4341 280.689 56.023 282.977 54.2658C285.307 52.5086 288.882 51.6301 293.704 51.6301H301.305C301.305 49.5459 300.672 47.9522 299.405 46.8489C298.138 45.7046 296.238 45.1325 293.704 45.1325C291.947 45.1325 290.211 45.4186 288.494 45.9907C286.819 46.5219 285.388 47.2575 284.203 48.1974L280.771 41.516C282.569 40.2492 284.714 39.2684 287.207 38.5737C289.741 37.879 292.336 37.5317 294.992 37.5317ZM294.256 65.0542C295.891 65.0542 297.341 64.6864 298.608 63.9508C299.875 63.1744 300.774 62.0506 301.305 60.5795V57.2081H294.747C290.824 57.2081 288.862 58.4954 288.862 61.0698C288.862 62.2958 289.332 63.2765 290.272 64.0121C291.253 64.7068 292.581 65.0542 294.256 65.0542ZM339.015 37.5317C342.08 37.5317 344.858 38.2468 347.351 39.6771C349.885 41.0665 351.867 43.0484 353.297 45.6229C354.727 48.1565 355.442 51.1192 355.442 54.511C355.442 57.9028 354.727 60.8859 353.297 63.4604C351.867 65.9941 349.885 67.976 347.351 69.4063C344.858 70.7957 342.08 71.4904 339.015 71.4904C334.806 71.4904 331.496 70.1623 329.085 67.5061V82.8917H319.522V38.0221H328.655V41.8225C331.026 38.9619 334.479 37.5317 339.015 37.5317ZM337.36 63.6443C339.812 63.6443 341.814 62.827 343.367 61.1924C344.961 59.517 345.757 57.2898 345.757 54.511C345.757 51.7322 344.961 49.5255 343.367 47.8909C341.814 46.2155 339.812 45.3777 337.36 45.3777C334.908 45.3777 332.885 46.2155 331.291 47.8909C329.738 49.5255 328.962 51.7322 328.962 54.511C328.962 57.2898 329.738 59.517 331.291 61.1924C332.885 62.827 334.908 63.6443 337.36 63.6443ZM380.983 71.7356C374.853 71.7356 370.072 70.0397 366.639 66.6479C363.247 63.2561 361.552 58.4136 361.552 52.1204V28.0919H371.482V51.7526C371.482 59.4352 374.669 63.2765 381.044 63.2765C384.15 63.2765 386.52 62.3571 388.155 60.5182C389.789 58.6384 390.606 55.7165 390.606 51.7526V28.0919H400.414V52.1204C400.414 58.4136 398.698 63.2561 395.265 66.6479C391.873 70.0397 387.112 71.7356 380.983 71.7356ZM429.597 37.5317C433.683 37.5317 436.973 38.7576 439.466 41.2095C441.999 43.6614 443.266 47.2984 443.266 52.1204V71H433.704V53.5916C433.704 50.9762 433.132 49.0351 431.987 47.7683C430.843 46.4606 429.188 45.8068 427.022 45.8068C424.611 45.8068 422.691 46.5628 421.26 48.0748C419.83 49.5459 419.115 51.7526 419.115 54.6949V71H409.553V38.0221H418.686V41.8838C419.953 40.4944 421.526 39.4319 423.406 38.6963C425.286 37.9199 427.349 37.5317 429.597 37.5317ZM485.884 25.5174V71H476.751V67.1996C474.381 70.0601 470.948 71.4904 466.453 71.4904C463.347 71.4904 460.527 70.7957 457.994 69.4063C455.501 68.0169 453.539 66.0349 452.109 63.4604C450.679 60.8859 449.964 57.9028 449.964 54.511C449.964 51.1192 450.679 48.1361 452.109 45.5616C453.539 42.9871 455.501 41.0052 457.994 39.6158C460.527 38.2264 463.347 37.5317 466.453 37.5317C470.662 37.5317 473.951 38.8598 476.322 41.516V25.5174H485.884ZM468.108 63.6443C470.519 63.6443 472.521 62.827 474.115 61.1924C475.709 59.517 476.505 57.2898 476.505 54.511C476.505 51.7322 475.709 49.5255 474.115 47.8909C472.521 46.2155 470.519 45.3777 468.108 45.3777C465.656 45.3777 463.633 46.2155 462.039 47.8909C460.446 49.5255 459.649 51.7322 459.649 54.511C459.649 57.2898 460.446 59.517 462.039 61.1924C463.633 62.827 465.656 63.6443 468.108 63.6443ZM527.038 54.6336C527.038 54.7562 526.977 55.6144 526.854 57.2081H501.906C502.356 59.2514 503.418 60.8655 505.094 62.0506C506.769 63.2357 508.853 63.8282 511.346 63.8282C513.062 63.8282 514.574 63.583 515.882 63.0926C517.23 62.5614 518.477 61.7441 519.621 60.6408L524.709 66.1575C521.603 69.7128 517.067 71.4904 511.101 71.4904C507.382 71.4904 504.092 70.7752 501.232 69.345C498.371 67.8738 496.165 65.851 494.612 63.2765C493.059 60.7021 492.282 57.7802 492.282 54.511C492.282 51.2827 493.038 48.3813 494.55 45.8068C496.103 43.1915 498.208 41.1686 500.864 39.7384C503.561 38.2672 506.565 37.5317 509.875 37.5317C513.103 37.5317 516.025 38.2264 518.64 39.6158C521.256 41.0052 523.299 43.0076 524.77 45.6229C526.282 48.1974 527.038 51.201 527.038 54.6336ZM509.936 44.7648C507.77 44.7648 505.952 45.3777 504.481 46.6037C503.009 47.8296 502.11 49.5051 501.783 51.6301H518.027C517.7 49.5459 516.801 47.8909 515.33 46.665C513.859 45.3982 512.061 44.7648 509.936 44.7648ZM542.538 42.3742C543.682 40.7804 545.214 39.5749 547.135 38.7576C549.096 37.9403 551.344 37.5317 553.878 37.5317V46.3585C552.815 46.2768 552.1 46.2359 551.732 46.2359C548.994 46.2359 546.849 47.0123 545.296 48.5652C543.743 50.0772 542.967 52.3656 542.967 55.4305V71H533.404V38.0221H542.538V42.3742Z" fill="#E0CCC5"/>
<path d="M226.594 111.688C229.046 112.464 230.967 113.772 232.356 115.611C233.746 117.409 234.441 119.636 234.441 122.292C234.441 126.052 232.969 128.953 230.027 130.996C227.126 132.999 222.876 134 217.277 134H195.088V91.0919H216.051C221.282 91.0919 225.287 92.0931 228.066 94.0955C230.885 96.0978 232.295 98.8153 232.295 102.248C232.295 104.332 231.784 106.191 230.763 107.826C229.782 109.461 228.393 110.748 226.594 111.688ZM204.957 98.5702V108.684H214.825C217.277 108.684 219.137 108.255 220.403 107.397C221.67 106.539 222.304 105.272 222.304 103.597C222.304 101.921 221.67 100.675 220.403 99.8574C219.137 98.9992 217.277 98.5702 214.825 98.5702H204.957ZM216.542 126.522C219.157 126.522 221.119 126.093 222.426 125.234C223.775 124.376 224.449 123.048 224.449 121.25C224.449 117.695 221.813 115.917 216.542 115.917H204.957V126.522H216.542ZM241.284 88.5174H250.847V134H241.284V88.5174ZM275.413 134.49C271.94 134.49 268.814 133.775 266.035 132.345C263.297 130.874 261.152 128.851 259.599 126.277C258.046 123.702 257.269 120.78 257.269 117.511C257.269 114.242 258.046 111.32 259.599 108.746C261.152 106.171 263.297 104.169 266.035 102.738C268.814 101.267 271.94 100.532 275.413 100.532C278.887 100.532 281.993 101.267 284.731 102.738C287.469 104.169 289.614 106.171 291.167 108.746C292.72 111.32 293.496 114.242 293.496 117.511C293.496 120.78 292.72 123.702 291.167 126.277C289.614 128.851 287.469 130.874 284.731 132.345C281.993 133.775 278.887 134.49 275.413 134.49ZM275.413 126.644C277.865 126.644 279.868 125.827 281.421 124.192C283.014 122.517 283.811 120.29 283.811 117.511C283.811 114.732 283.014 112.526 281.421 110.891C279.868 109.215 277.865 108.378 275.413 108.378C272.962 108.378 270.939 109.215 269.345 110.891C267.751 112.526 266.954 114.732 266.954 117.511C266.954 120.29 267.751 122.517 269.345 124.192C270.939 125.827 272.962 126.644 275.413 126.644ZM315.825 134.49C312.311 134.49 309.144 133.775 306.324 132.345C303.545 130.874 301.359 128.851 299.765 126.277C298.212 123.702 297.436 120.78 297.436 117.511C297.436 114.242 298.212 111.32 299.765 108.746C301.359 106.171 303.545 104.169 306.324 102.738C309.144 101.267 312.311 100.532 315.825 100.532C319.299 100.532 322.323 101.267 324.897 102.738C327.513 104.169 329.413 106.232 330.598 108.929L323.181 112.914C321.465 109.89 318.992 108.378 315.764 108.378C313.271 108.378 311.207 109.195 309.573 110.83C307.938 112.464 307.121 114.691 307.121 117.511C307.121 120.331 307.938 122.558 309.573 124.192C311.207 125.827 313.271 126.644 315.764 126.644C319.033 126.644 321.505 125.132 323.181 122.108L330.598 126.154C329.413 128.769 327.513 130.813 324.897 132.284C322.323 133.755 319.299 134.49 315.825 134.49ZM350.024 121.066L345.426 125.602V134H335.864V88.5174H345.426V114.262L359.402 101.022H370.804L357.073 114.998L372.03 134H360.444L350.024 121.066ZM389.033 100.532C394.141 100.532 398.064 101.758 400.802 104.21C403.54 106.621 404.909 110.278 404.909 115.182V134H395.959V129.893C394.161 132.958 390.81 134.49 385.907 134.49C383.373 134.49 381.166 134.061 379.287 133.203C377.448 132.345 376.038 131.16 375.057 129.648C374.076 128.136 373.586 126.42 373.586 124.499C373.586 121.434 374.73 119.023 377.019 117.266C379.348 115.509 382.924 114.63 387.746 114.63H395.346C395.346 112.546 394.713 110.952 393.446 109.849C392.179 108.705 390.279 108.133 387.746 108.133C385.988 108.133 384.252 108.419 382.535 108.991C380.86 109.522 379.43 110.258 378.244 111.197L374.812 104.516C376.61 103.249 378.755 102.268 381.248 101.574C383.782 100.879 386.377 100.532 389.033 100.532ZM388.297 128.054C389.932 128.054 391.383 127.686 392.649 126.951C393.916 126.174 394.815 125.051 395.346 123.579V120.208H388.788C384.865 120.208 382.903 121.495 382.903 124.07C382.903 125.296 383.373 126.277 384.313 127.012C385.294 127.707 386.622 128.054 388.297 128.054ZM447.513 88.5174V134H438.38V130.2C436.01 133.06 432.577 134.49 428.082 134.49C424.976 134.49 422.157 133.796 419.623 132.406C417.13 131.017 415.169 129.035 413.738 126.46C412.308 123.886 411.593 120.903 411.593 117.511C411.593 114.119 412.308 111.136 413.738 108.562C415.169 105.987 417.13 104.005 419.623 102.616C422.157 101.226 424.976 100.532 428.082 100.532C432.291 100.532 435.581 101.86 437.951 104.516V88.5174H447.513ZM429.737 126.644C432.148 126.644 434.15 125.827 435.744 124.192C437.338 122.517 438.135 120.29 438.135 117.511C438.135 114.732 437.338 112.526 435.744 110.891C434.15 109.215 432.148 108.378 429.737 108.378C427.285 108.378 425.262 109.215 423.669 110.891C422.075 112.526 421.278 114.732 421.278 117.511C421.278 120.29 422.075 122.517 423.669 124.192C425.262 125.827 427.285 126.644 429.737 126.644ZM488.667 117.634C488.667 117.756 488.606 118.614 488.483 120.208H463.535C463.985 122.251 465.047 123.866 466.723 125.051C468.398 126.236 470.482 126.828 472.975 126.828C474.691 126.828 476.203 126.583 477.511 126.093C478.86 125.561 480.106 124.744 481.25 123.641L486.338 129.158C483.232 132.713 478.696 134.49 472.73 134.49C469.011 134.49 465.722 133.775 462.861 132.345C460.001 130.874 457.794 128.851 456.241 126.277C454.688 123.702 453.912 120.78 453.912 117.511C453.912 114.283 454.668 111.381 456.18 108.807C457.733 106.191 459.837 104.169 462.493 102.738C465.19 101.267 468.194 100.532 471.504 100.532C474.732 100.532 477.654 101.226 480.27 102.616C482.885 104.005 484.928 106.008 486.399 108.623C487.911 111.197 488.667 114.201 488.667 117.634ZM471.565 107.765C469.399 107.765 467.581 108.378 466.11 109.604C464.639 110.83 463.74 112.505 463.413 114.63H479.657C479.33 112.546 478.431 110.891 476.959 109.665C475.488 108.398 473.69 107.765 471.565 107.765Z" fill="#E66137"/>
</svg>
